<?xml version="1.0" standalone="no"?>
<!DOCTYPE svg PUBLIC "-//W3C//DTD SVG 1.1//EN" "http://www.w3.org/Graphics/SVG/1.1/DTD/svg11.dtd">
<!--Generator: Xara Designer (www.xara.com), SVG filter version: 6.6.0.1-->
<svg fill="none" fill-rule="evenodd" stroke="black" stroke-width="0.501" stroke-linejoin="bevel" stroke-miterlimit="10" font-family="Times New Roman" font-size="16" style="font-variant-ligatures:none" xmlns:xlink="http://www.w3.org/1999/xlink" xmlns="http://www.w3.org/2000/svg" version="1.1" overflow="visible" width="96pt" height="96pt" viewBox="0 -96 96 96">
 <defs>
	</defs>
 <g id="Layer 1" transform="scale(1 -1)">
  <rect x="-6.7495" y="-6.7495" width="13.499" height="13.499" rx="0" ry="0" transform="matrix(4 0 0 4 47.997 47.997)" fill="#85ded8" fill-rule="nonzero" stroke-linejoin="miter" stroke="none" stroke-width="3"/>
  <mask id="TranspMask">
   <rect x="-10%" y="-10%" width="120%" height="120%" fill="#cccccc" stroke="none"/>
  </mask>
  <g id="Group_1" fill="#000000" fill-rule="nonzero" stroke-linejoin="miter" stroke="none" stroke-width="3" mask="url(#TranspMask)">
   <path d="M 81,3 L 45,3 L 45,75 L 57,75 C 67.932,75 75,67.932 75,57 C 75,46.064 67.932,39 57,39 L 51,39 L 51,9 L 81,9 C 84.308,9 87,11.688 87,15 L 87,81 C 87,84.308 84.308,87 81,87 L 15,87 C 11.688,87 9,84.308 9,81 L 9,15 C 9,11.688 11.688,9 15,9 L 33,9 L 33,75 L 39,75 L 39,3 L 15,3 C 8.38,3 3,8.38 3,15 L 3,81 C 3,87.616 8.38,93 15,93 L 81,93 C 87.616,93 93,87.616 93,81 L 93,15 C 93,8.38 87.616,3 81,3 Z M 51,45 L 57,45 C 64.624,45 69,49.372 69,57 C 69,64.624 64.624,69 57,69 L 51,69 L 51,45 Z" marker-start="none" marker-end="none"/>
  </g>
 </g>
</svg>
